<svg width="87" height="87" viewBox="0 0 87 87" fill="none" xmlns="http://www.w3.org/2000/svg">
<path d="M74.7656 9.51562H12.2344C10.7306 9.51562 9.51562 10.7306 9.51562 12.2344V74.7656C9.51562 76.2694 10.7306 77.4844 12.2344 77.4844H74.7656C76.2694 77.4844 77.4844 76.2694 77.4844 74.7656V12.2344C77.4844 10.7306 76.2694 9.51562 74.7656 9.51562ZM39.2824 53.9892C37.3478 57.3756 34.3242 60.6703 34.3242 64.5703C34.3242 64.9441 34.0184 65.25 33.6445 65.25H29.5664C29.1926 65.25 28.8867 64.9441 28.8867 64.5703C28.8867 60.6686 25.8657 57.3742 23.9288 53.9872C23.1915 52.6979 22.7695 51.2063 22.7695 49.6172C22.7695 48.2884 23.0645 47.0268 23.5923 45.8947C25.4243 41.9645 28.8867 38.2687 28.8867 33.9325V22.4297C28.8867 22.0559 29.1926 21.75 29.5664 21.75H33.6445C34.0184 21.75 34.3242 22.0559 34.3242 22.4297V33.949C34.3242 38.2772 37.7743 41.9627 39.6116 45.8815C40.1438 47.0166 40.4414 48.2825 40.4414 49.6172C40.4414 51.2061 40.0196 52.6989 39.2824 53.9892ZM58.1084 45.7931C58.1033 45.7948 58.1045 45.7956 58.1098 45.7944C58.1124 45.7938 58.1133 45.7961 58.1133 45.7987V64.5703C58.1133 64.9441 57.8074 65.25 57.4336 65.25H53.3555C52.9816 65.25 52.6758 64.9441 52.6758 64.5703V45.7987C52.6758 45.7961 52.6796 45.794 52.6822 45.7944C52.6876 45.7951 52.6858 45.7948 52.6806 45.7931C49.1274 44.6458 46.5586 41.3143 46.5586 37.3828C46.5586 33.4514 49.1274 30.1199 52.6806 28.9725C52.6858 28.9709 52.6845 28.97 52.6792 28.9713C52.6767 28.9718 52.6758 28.9696 52.6758 28.9669V22.4297C52.6758 22.0559 52.9816 21.75 53.3555 21.75H57.4336C57.8074 21.75 58.1133 22.0559 58.1133 22.4297V28.9669C58.1133 28.9696 58.1095 28.9716 58.1069 28.9713C58.1015 28.9705 58.1033 28.9709 58.1084 28.9725C61.6617 30.1199 64.2305 33.4514 64.2305 37.3828C64.2305 41.3143 61.6617 44.6458 58.1084 45.7931ZM52.3359 37.3828C52.3359 38.194 52.6582 38.972 53.2318 39.5456C53.8054 40.1192 54.5833 40.4414 55.3945 40.4414C56.2057 40.4414 56.9837 40.1192 57.5573 39.5456C58.1309 38.972 58.4531 38.194 58.4531 37.3828C58.4531 36.5716 58.1309 35.7937 57.5573 35.2201C56.9837 34.6465 56.2057 34.3242 55.3945 34.3242C54.5833 34.3242 53.8054 34.6465 53.2318 35.2201C52.6582 35.7937 52.3359 36.5716 52.3359 37.3828ZM34.2987 48.1729C34.284 48.1433 34.2644 48.1162 34.2469 48.0882L34.1506 47.9342C34.1475 47.9291 34.1462 47.9227 34.142 47.9184C34.1372 47.9136 34.1351 47.9065 34.131 47.901L34.0641 47.8119C34.0619 47.809 34.059 47.8057 34.0565 47.8031C34.0448 47.791 34.0383 47.7748 34.028 47.7615C33.9483 47.6589 33.8676 47.5638 33.772 47.4762L33.755 47.4592C33.7348 47.439 33.7146 47.4188 33.6945 47.4004C33.6679 47.3762 33.6405 47.3527 33.6139 47.3284C33.5574 47.2767 33.4965 47.2304 33.4355 47.1896C33.4333 47.1881 33.4307 47.1873 33.4281 47.1873C33.4252 47.1873 33.4224 47.1864 33.4201 47.1846L33.3359 47.1215C33.3264 47.1144 33.3176 47.1068 33.3078 47.1002C33.2942 47.091 33.2808 47.0807 33.267 47.0717C33.1709 47.0083 33.0673 46.946 32.9563 46.8984C32.9155 46.878 32.8758 46.8546 32.834 46.8363C32.8333 46.8359 32.8325 46.8356 32.8317 46.8352C32.8127 46.8268 32.7935 46.8187 32.7743 46.8107C32.7552 46.8026 32.735 46.7935 32.7185 46.788C32.676 46.771 32.6335 46.754 32.591 46.7455C32.557 46.737 32.5145 46.72 32.4806 46.7115L32.4041 46.686L32.3118 46.6663C32.2941 46.6625 32.277 46.6564 32.2593 46.6528C32.2367 46.6482 32.214 46.6421 32.1914 46.6378C32.1488 46.6299 32.1063 46.6192 32.0638 46.6121C32.0528 46.6103 32.042 46.6099 32.0309 46.6093C32.0074 46.6081 31.9845 46.5989 31.9612 46.5962C31.9311 46.5928 31.9028 46.5912 31.872 46.5871C31.8586 46.5853 31.8479 46.5845 31.8343 46.5838C31.8079 46.5823 31.7789 46.5758 31.7524 46.5747C31.7002 46.5725 31.6513 46.5671 31.597 46.5671C31.529 46.5671 31.4695 46.5671 31.4016 46.5756C31.3616 46.5756 31.3216 46.5832 31.2818 46.5876C31.2593 46.59 31.2374 46.5935 31.2171 46.5973C31.2041 46.5997 31.1915 46.6006 31.1783 46.6015C31.1569 46.6031 31.1358 46.6111 31.1146 46.6142C31.0743 46.6202 31.0339 46.6268 30.9936 46.6368C30.9767 46.641 30.9605 46.6475 30.9434 46.6511C30.9202 46.6559 30.897 46.6631 30.8738 46.6681L30.7898 46.686L30.7134 46.7115C30.6794 46.72 30.6369 46.737 30.6029 46.7455C30.5605 46.7625 30.518 46.7795 30.4755 46.788C30.4177 46.8073 30.3621 46.8334 30.3071 46.8596C30.3038 46.8611 30.3005 46.8627 30.2971 46.8645C30.2562 46.8849 30.2171 46.9094 30.177 46.9311C30.0943 46.9759 30.0116 47.0215 29.9289 47.0715C29.9138 47.0807 29.8991 47.0913 29.8846 47.1012C29.8758 47.1072 29.868 47.1141 29.8594 47.1205L29.7737 47.1848C29.7715 47.1864 29.7688 47.1873 29.7661 47.1873C29.7633 47.1873 29.7606 47.1882 29.7584 47.19C29.6831 47.2485 29.6079 47.3071 29.5409 47.3657C29.5069 47.3997 29.4729 47.4252 29.439 47.4592L29.422 47.4762C29.3269 47.5741 29.2362 47.6761 29.1501 47.782C29.1357 47.7964 29.1265 47.8163 29.1143 47.8326L29.063 47.901C29.0589 47.9065 29.0567 47.9136 29.0519 47.9184C29.0477 47.9227 29.0465 47.9291 29.0433 47.9342L28.9207 48.1304C28.9122 48.1474 28.9037 48.1559 28.8952 48.1729C28.6658 48.6062 28.5299 49.0989 28.5299 49.6172C28.5299 50.1354 28.6658 50.6367 28.8952 51.0615C28.9037 51.0785 28.9122 51.087 28.9207 51.104L29.0433 51.3002C29.0465 51.3052 29.0477 51.3117 29.0519 51.3159C29.0567 51.3208 29.0589 51.3279 29.063 51.3333L29.1299 51.4225C29.132 51.4254 29.135 51.4287 29.1375 51.4313C29.1492 51.4433 29.1556 51.4596 29.166 51.4729C29.2457 51.5754 29.3264 51.6706 29.422 51.7582L29.439 51.7752C29.4591 51.7954 29.4793 51.8155 29.4995 51.8339C29.5261 51.8582 29.5534 51.8817 29.58 51.906C29.6365 51.9577 29.6975 52.004 29.7585 52.0448C29.7606 52.0463 29.7632 52.0471 29.7659 52.0471C29.7687 52.0471 29.7716 52.048 29.7739 52.0497L29.858 52.1129C29.8675 52.12 29.8763 52.1276 29.8861 52.1342C29.8998 52.1434 29.9131 52.1536 29.9269 52.1627C30.0231 52.226 30.1266 52.2884 30.2376 52.3359C30.2784 52.3563 30.3181 52.3798 30.3599 52.3981C30.3607 52.3985 30.3614 52.3988 30.3622 52.3991C30.3813 52.4076 30.4005 52.4156 30.4197 52.4237C30.4388 52.4317 30.4589 52.4409 30.4755 52.4464C30.518 52.4634 30.5605 52.4804 30.6029 52.4889C30.6369 52.4974 30.6794 52.5144 30.7134 52.5229L30.7898 52.5483L30.8822 52.5681C30.8998 52.5719 30.9169 52.5779 30.9346 52.5815C30.9572 52.5861 30.9799 52.5923 31.0026 52.5965C31.0451 52.6045 31.0876 52.6151 31.1301 52.6222C31.1411 52.6241 31.1519 52.6245 31.163 52.6251C31.1865 52.6263 31.2094 52.6355 31.2328 52.6381C31.2628 52.6415 31.2912 52.6432 31.3219 52.6473C31.3354 52.6491 31.3461 52.6499 31.3596 52.6506C31.3861 52.652 31.4151 52.6586 31.4416 52.6597C31.4937 52.6619 31.5426 52.6673 31.597 52.6673C31.6649 52.6673 31.7244 52.6673 31.7924 52.6588C31.8324 52.6588 31.8724 52.6511 31.9121 52.6468C31.9347 52.6443 31.9565 52.6408 31.9769 52.6371C31.9898 52.6347 32.0025 52.6338 32.0156 52.6328C32.037 52.6313 32.0581 52.6233 32.0794 52.6202C32.1197 52.6142 32.16 52.6076 32.2003 52.5976C32.2173 52.5934 32.2334 52.5868 32.2505 52.5833C32.2738 52.5785 32.2969 52.5713 32.3202 52.5663L32.4041 52.5483L32.4806 52.5229C32.5145 52.5144 32.557 52.4974 32.591 52.4889C32.6335 52.4719 32.676 52.4549 32.7185 52.4464C32.7763 52.4271 32.8318 52.401 32.8869 52.3748C32.8901 52.3733 32.8935 52.3716 32.8969 52.3699C32.9377 52.3495 32.9768 52.325 33.017 52.3032C33.0997 52.2585 33.1824 52.2129 33.2651 52.1628C33.2801 52.1537 33.2948 52.143 33.3094 52.1331C33.3182 52.1271 33.326 52.1203 33.3345 52.1139L33.4203 52.0496C33.4225 52.0479 33.4251 52.0471 33.4278 52.0471C33.4306 52.0471 33.4333 52.0461 33.4355 52.0444C33.5109 51.9858 33.5861 51.9272 33.653 51.8687C33.687 51.8347 33.721 51.8092 33.755 51.7752L33.772 51.7582C33.8654 51.6647 33.9589 51.5543 34.0438 51.4523C34.0582 51.438 34.0674 51.4181 34.0796 51.4018L34.131 51.3333C34.1351 51.3279 34.1372 51.3208 34.142 51.3159C34.1462 51.3117 34.1475 51.3052 34.1506 51.3002L34.2732 51.104C34.2817 51.087 34.2902 51.0785 34.2987 51.0615C34.5281 50.6282 34.6641 50.1354 34.6641 49.6172C34.6641 49.0989 34.5281 48.5977 34.2987 48.1729Z" fill="#446DFF"/>
</svg>
