<svg width="68" height="68" viewBox="0 0 68 68" fill="none" xmlns="http://www.w3.org/2000/svg">
<mask id="path-1-inside-1_131_36" fill="white">
<path d="M65.25 0H2.71875C1.21494 0 0 1.21494 0 2.71875V65.25C0 66.7538 1.21494 67.9688 2.71875 67.9688H65.25C66.7538 67.9688 67.9688 66.7538 67.9688 65.25V2.71875C67.9688 1.21494 66.7538 0 65.25 0ZM24.8086 48.5127V55.0547C24.8086 55.4285 24.5027 55.7344 24.1289 55.7344H20.0508C19.677 55.7344 19.3711 55.4285 19.3711 55.0547V48.5127C15.8282 47.3572 13.2539 44.0268 13.2539 40.1016C13.2539 36.1764 15.8282 32.8374 19.3711 31.6904V12.9141C19.3711 12.5402 19.677 12.2344 20.0508 12.2344H24.1289C24.5027 12.2344 24.8086 12.5402 24.8086 12.9141V31.6904C28.3515 32.8459 30.9258 36.1764 30.9258 40.1016C30.9258 44.0268 28.3515 47.3657 24.8086 48.5127ZM48.5637 36.2868C48.5807 36.2868 48.5892 36.2783 48.5977 36.2783V55.0547C48.5977 55.4285 48.2918 55.7344 47.918 55.7344H43.8398C43.466 55.7344 43.1602 55.4285 43.1602 55.0547V36.2783C43.1771 36.2783 43.1856 36.2868 43.1941 36.2868C39.6258 35.1483 37.043 31.8094 37.043 27.8672C37.043 23.925 39.6258 20.586 43.1941 19.4476C43.1772 19.4476 43.1687 19.4561 43.1602 19.4561V12.9141C43.1602 12.5402 43.466 12.2344 43.8398 12.2344H47.918C48.2918 12.2344 48.5977 12.5402 48.5977 12.9141V19.4561C48.5807 19.4561 48.5722 19.4476 48.5637 19.4476C52.132 20.586 54.7148 23.925 54.7148 27.8672C54.7148 31.8094 52.132 35.1483 48.5637 36.2868ZM42.8203 27.8672C42.8203 28.6784 43.1426 29.4563 43.7162 30.0299C44.2897 30.6035 45.0677 30.9258 45.8789 30.9258C46.6901 30.9258 47.4681 30.6035 48.0417 30.0299C48.6153 29.4563 48.9375 28.6784 48.9375 27.8672C48.9375 27.056 48.6153 26.278 48.0417 25.7044C47.4681 25.1308 46.6901 24.8086 45.8789 24.8086C45.0677 24.8086 44.2897 25.1308 43.7162 25.7044C43.1426 26.278 42.8203 27.056 42.8203 27.8672ZM24.7576 38.6147L24.6302 38.4108C24.6302 38.4023 24.6217 38.4023 24.6217 38.3938L24.5452 38.2919C24.5367 38.2834 24.5282 38.2749 24.5282 38.2664C24.4433 38.156 24.3583 38.054 24.2563 37.9605L24.2394 37.9436C24.2054 37.9096 24.1714 37.8756 24.1374 37.8501C24.0694 37.7821 23.993 37.7227 23.9165 37.6717H23.908L23.8061 37.5952C23.7976 37.5867 23.7806 37.5782 23.7721 37.5697C23.6701 37.5018 23.5597 37.4338 23.4407 37.3828C23.4237 37.3743 23.3982 37.3658 23.3813 37.3488C23.3473 37.3318 23.3218 37.3233 23.2878 37.3063C23.2623 37.2978 23.2283 37.2809 23.2028 37.2724C23.1604 37.2554 23.1179 37.2384 23.0754 37.2299C23.0414 37.2214 22.9989 37.2044 22.9649 37.1959L22.8885 37.1704L22.7695 37.1449C22.7525 37.1364 22.727 37.1364 22.7101 37.1279C22.6506 37.1194 22.5911 37.1024 22.5316 37.0939C22.5146 37.0939 22.4977 37.0939 22.4807 37.0854C22.4297 37.077 22.3872 37.077 22.3362 37.0685C22.3192 37.0685 22.3022 37.0685 22.2768 37.06C22.2088 37.06 22.1493 37.0515 22.0813 37.0515C22.0134 37.0515 21.9539 37.0515 21.8859 37.06C21.8689 37.06 21.852 37.06 21.8265 37.0685C21.7755 37.0685 21.7245 37.077 21.682 37.0854C21.665 37.0854 21.648 37.0854 21.6311 37.0939C21.5716 37.1024 21.5121 37.1109 21.4526 37.1279C21.4356 37.1364 21.4102 37.1364 21.3932 37.1449L21.2742 37.1704L21.1978 37.1959C21.1638 37.2044 21.1213 37.2214 21.0873 37.2299C21.0448 37.2469 21.0023 37.2639 20.9599 37.2724C20.9344 37.2809 20.9004 37.2978 20.8749 37.3063C20.8409 37.3233 20.8154 37.3318 20.7814 37.3488C20.7645 37.3573 20.739 37.3658 20.722 37.3828C20.6115 37.4423 20.5011 37.5018 20.3906 37.5697C20.3821 37.5782 20.3651 37.5867 20.3566 37.5952L20.2547 37.6717H20.2462C20.1697 37.7312 20.0933 37.7906 20.0253 37.8501C19.9913 37.8841 19.9573 37.9096 19.9233 37.9436L19.9063 37.9605C19.8113 38.0585 19.7206 38.1605 19.6345 38.2664C19.626 38.2749 19.6175 38.2834 19.6175 38.2919L19.541 38.3938C19.541 38.4023 19.5325 38.4023 19.5325 38.4108L19.4051 38.6147C19.3966 38.6317 19.3881 38.6402 19.3796 38.6572C19.1502 39.0905 19.0143 39.5833 19.0143 40.1016C19.0143 40.6198 19.1502 41.1211 19.3796 41.5459C19.3881 41.5629 19.3966 41.5714 19.4051 41.5884L19.5325 41.7923C19.5325 41.8008 19.541 41.8008 19.541 41.8093L19.6175 41.9112C19.626 41.9197 19.6345 41.9282 19.6345 41.9367C19.7194 42.0472 19.8044 42.1491 19.9063 42.2426L19.9233 42.2596C19.9573 42.2936 19.9913 42.3275 20.0253 42.353C20.0933 42.421 20.1697 42.4805 20.2462 42.5314H20.2547L20.3566 42.6079C20.3651 42.6164 20.3821 42.6249 20.3906 42.6334C20.4926 42.7014 20.603 42.7693 20.722 42.8203C20.739 42.8288 20.7645 42.8373 20.7814 42.8543C20.8154 42.8713 20.8409 42.8798 20.8749 42.8968C20.9004 42.9053 20.9344 42.9223 20.9599 42.9308C21.0023 42.9478 21.0448 42.9647 21.0873 42.9732C21.1213 42.9817 21.1638 42.9987 21.1978 43.0072L21.2742 43.0327L21.3932 43.0582C21.4102 43.0667 21.4356 43.0667 21.4526 43.0752C21.5121 43.0837 21.5716 43.1007 21.6311 43.1092C21.648 43.1092 21.665 43.1092 21.682 43.1177C21.733 43.1262 21.7755 43.1262 21.8265 43.1347C21.8435 43.1347 21.8604 43.1347 21.8859 43.1432C21.9539 43.1432 22.0134 43.1517 22.0813 43.1517C22.1493 43.1517 22.2088 43.1517 22.2768 43.1432C22.2938 43.1432 22.3107 43.1432 22.3362 43.1347C22.3872 43.1347 22.4382 43.1262 22.4807 43.1177C22.4977 43.1177 22.5146 43.1177 22.5316 43.1092C22.5911 43.1007 22.6506 43.0922 22.7101 43.0752C22.727 43.0667 22.7525 43.0667 22.7695 43.0582L22.8885 43.0327L22.9649 43.0072C22.9989 42.9987 23.0414 42.9817 23.0754 42.9732C23.1179 42.9562 23.1604 42.9393 23.2028 42.9308C23.2283 42.9223 23.2623 42.9053 23.2878 42.8968C23.3218 42.8798 23.3473 42.8713 23.3813 42.8543C23.3982 42.8458 23.4237 42.8373 23.4407 42.8203C23.5512 42.7608 23.6616 42.7014 23.7721 42.6334C23.7806 42.6249 23.7976 42.6164 23.8061 42.6079L23.908 42.5314H23.9165C23.993 42.472 24.0694 42.4125 24.1374 42.353C24.1714 42.319 24.2054 42.2936 24.2394 42.2596L24.2563 42.2426C24.3498 42.1491 24.4433 42.0387 24.5282 41.9367C24.5367 41.9282 24.5452 41.9197 24.5452 41.9112L24.6217 41.8093C24.6217 41.8008 24.6302 41.8008 24.6302 41.7923L24.7576 41.5884C24.7661 41.5714 24.7746 41.5629 24.7831 41.5459C25.0125 41.1126 25.1484 40.6198 25.1484 40.1016C25.1484 39.5833 25.0125 39.082 24.7831 38.6572C24.7746 38.6402 24.7661 38.6232 24.7576 38.6147Z"/>
</mask>
<path d="M65.25 0H2.71875C1.21494 0 0 1.21494 0 2.71875V65.25C0 66.7538 1.21494 67.9688 2.71875 67.9688H65.25C66.7538 67.9688 67.9688 66.7538 67.9688 65.25V2.71875C67.9688 1.21494 66.7538 0 65.25 0ZM24.8086 48.5127V55.0547C24.8086 55.4285 24.5027 55.7344 24.1289 55.7344H20.0508C19.677 55.7344 19.3711 55.4285 19.3711 55.0547V48.5127C15.8282 47.3572 13.2539 44.0268 13.2539 40.1016C13.2539 36.1764 15.8282 32.8374 19.3711 31.6904V12.9141C19.3711 12.5402 19.677 12.2344 20.0508 12.2344H24.1289C24.5027 12.2344 24.8086 12.5402 24.8086 12.9141V31.6904C28.3515 32.8459 30.9258 36.1764 30.9258 40.1016C30.9258 44.0268 28.3515 47.3657 24.8086 48.5127ZM48.5637 36.2868C48.5807 36.2868 48.5892 36.2783 48.5977 36.2783V55.0547C48.5977 55.4285 48.2918 55.7344 47.918 55.7344H43.8398C43.466 55.7344 43.1602 55.4285 43.1602 55.0547V36.2783C43.1771 36.2783 43.1856 36.2868 43.1941 36.2868C39.6258 35.1483 37.043 31.8094 37.043 27.8672C37.043 23.925 39.6258 20.586 43.1941 19.4476C43.1772 19.4476 43.1687 19.4561 43.1602 19.4561V12.9141C43.1602 12.5402 43.466 12.2344 43.8398 12.2344H47.918C48.2918 12.2344 48.5977 12.5402 48.5977 12.9141V19.4561C48.5807 19.4561 48.5722 19.4476 48.5637 19.4476C52.132 20.586 54.7148 23.925 54.7148 27.8672C54.7148 31.8094 52.132 35.1483 48.5637 36.2868ZM42.8203 27.8672C42.8203 28.6784 43.1426 29.4563 43.7162 30.0299C44.2897 30.6035 45.0677 30.9258 45.8789 30.9258C46.6901 30.9258 47.4681 30.6035 48.0417 30.0299C48.6153 29.4563 48.9375 28.6784 48.9375 27.8672C48.9375 27.056 48.6153 26.278 48.0417 25.7044C47.4681 25.1308 46.6901 24.8086 45.8789 24.8086C45.0677 24.8086 44.2897 25.1308 43.7162 25.7044C43.1426 26.278 42.8203 27.056 42.8203 27.8672ZM24.7576 38.6147L24.6302 38.4108C24.6302 38.4023 24.6217 38.4023 24.6217 38.3938L24.5452 38.2919C24.5367 38.2834 24.5282 38.2749 24.5282 38.2664C24.4433 38.156 24.3583 38.054 24.2563 37.9605L24.2394 37.9436C24.2054 37.9096 24.1714 37.8756 24.1374 37.8501C24.0694 37.7821 23.993 37.7227 23.9165 37.6717H23.908L23.8061 37.5952C23.7976 37.5867 23.7806 37.5782 23.7721 37.5697C23.6701 37.5018 23.5597 37.4338 23.4407 37.3828C23.4237 37.3743 23.3982 37.3658 23.3813 37.3488C23.3473 37.3318 23.3218 37.3233 23.2878 37.3063C23.2623 37.2978 23.2283 37.2809 23.2028 37.2724C23.1604 37.2554 23.1179 37.2384 23.0754 37.2299C23.0414 37.2214 22.9989 37.2044 22.9649 37.1959L22.8885 37.1704L22.7695 37.1449C22.7525 37.1364 22.727 37.1364 22.7101 37.1279C22.6506 37.1194 22.5911 37.1024 22.5316 37.0939C22.5146 37.0939 22.4977 37.0939 22.4807 37.0854C22.4297 37.077 22.3872 37.077 22.3362 37.0685C22.3192 37.0685 22.3022 37.0685 22.2768 37.06C22.2088 37.06 22.1493 37.0515 22.0813 37.0515C22.0134 37.0515 21.9539 37.0515 21.8859 37.06C21.8689 37.06 21.852 37.06 21.8265 37.0685C21.7755 37.0685 21.7245 37.077 21.682 37.0854C21.665 37.0854 21.648 37.0854 21.6311 37.0939C21.5716 37.1024 21.5121 37.1109 21.4526 37.1279C21.4356 37.1364 21.4102 37.1364 21.3932 37.1449L21.2742 37.1704L21.1978 37.1959C21.1638 37.2044 21.1213 37.2214 21.0873 37.2299C21.0448 37.2469 21.0023 37.2639 20.9599 37.2724C20.9344 37.2809 20.9004 37.2978 20.8749 37.3063C20.8409 37.3233 20.8154 37.3318 20.7814 37.3488C20.7645 37.3573 20.739 37.3658 20.722 37.3828C20.6115 37.4423 20.5011 37.5018 20.3906 37.5697C20.3821 37.5782 20.3651 37.5867 20.3566 37.5952L20.2547 37.6717H20.2462C20.1697 37.7312 20.0933 37.7906 20.0253 37.8501C19.9913 37.8841 19.9573 37.9096 19.9233 37.9436L19.9063 37.9605C19.8113 38.0585 19.7206 38.1605 19.6345 38.2664C19.626 38.2749 19.6175 38.2834 19.6175 38.2919L19.541 38.3938C19.541 38.4023 19.5325 38.4023 19.5325 38.4108L19.4051 38.6147C19.3966 38.6317 19.3881 38.6402 19.3796 38.6572C19.1502 39.0905 19.0143 39.5833 19.0143 40.1016C19.0143 40.6198 19.1502 41.1211 19.3796 41.5459C19.3881 41.5629 19.3966 41.5714 19.4051 41.5884L19.5325 41.7923C19.5325 41.8008 19.541 41.8008 19.541 41.8093L19.6175 41.9112C19.626 41.9197 19.6345 41.9282 19.6345 41.9367C19.7194 42.0472 19.8044 42.1491 19.9063 42.2426L19.9233 42.2596C19.9573 42.2936 19.9913 42.3275 20.0253 42.353C20.0933 42.421 20.1697 42.4805 20.2462 42.5314H20.2547L20.3566 42.6079C20.3651 42.6164 20.3821 42.6249 20.3906 42.6334C20.4926 42.7014 20.603 42.7693 20.722 42.8203C20.739 42.8288 20.7645 42.8373 20.7814 42.8543C20.8154 42.8713 20.8409 42.8798 20.8749 42.8968C20.9004 42.9053 20.9344 42.9223 20.9599 42.9308C21.0023 42.9478 21.0448 42.9647 21.0873 42.9732C21.1213 42.9817 21.1638 42.9987 21.1978 43.0072L21.2742 43.0327L21.3932 43.0582C21.4102 43.0667 21.4356 43.0667 21.4526 43.0752C21.5121 43.0837 21.5716 43.1007 21.6311 43.1092C21.648 43.1092 21.665 43.1092 21.682 43.1177C21.733 43.1262 21.7755 43.1262 21.8265 43.1347C21.8435 43.1347 21.8604 43.1347 21.8859 43.1432C21.9539 43.1432 22.0134 43.1517 22.0813 43.1517C22.1493 43.1517 22.2088 43.1517 22.2768 43.1432C22.2938 43.1432 22.3107 43.1432 22.3362 43.1347C22.3872 43.1347 22.4382 43.1262 22.4807 43.1177C22.4977 43.1177 22.5146 43.1177 22.5316 43.1092C22.5911 43.1007 22.6506 43.0922 22.7101 43.0752C22.727 43.0667 22.7525 43.0667 22.7695 43.0582L22.8885 43.0327L22.9649 43.0072C22.9989 42.9987 23.0414 42.9817 23.0754 42.9732C23.1179 42.9562 23.1604 42.9393 23.2028 42.9308C23.2283 42.9223 23.2623 42.9053 23.2878 42.8968C23.3218 42.8798 23.3473 42.8713 23.3813 42.8543C23.3982 42.8458 23.4237 42.8373 23.4407 42.8203C23.5512 42.7608 23.6616 42.7014 23.7721 42.6334C23.7806 42.6249 23.7976 42.6164 23.8061 42.6079L23.908 42.5314H23.9165C23.993 42.472 24.0694 42.4125 24.1374 42.353C24.1714 42.319 24.2054 42.2936 24.2394 42.2596L24.2563 42.2426C24.3498 42.1491 24.4433 42.0387 24.5282 41.9367C24.5367 41.9282 24.5452 41.9197 24.5452 41.9112L24.6217 41.8093C24.6217 41.8008 24.6302 41.8008 24.6302 41.7923L24.7576 41.5884C24.7661 41.5714 24.7746 41.5629 24.7831 41.5459C25.0125 41.1126 25.1484 40.6198 25.1484 40.1016C25.1484 39.5833 25.0125 39.082 24.7831 38.6572C24.7746 38.6402 24.7661 38.6232 24.7576 38.6147Z" fill="#446DFF" stroke="black" stroke-width="2" mask="url(#path-1-inside-1_131_36)"/>
</svg>
