<svg width="92" height="92" viewBox="0 0 92 92" fill="none" xmlns="http://www.w3.org/2000/svg">
<path fill-rule="evenodd" clip-rule="evenodd" d="M44.5889 13.0339C45.9659 12.5749 47.4547 12.5749 48.8317 13.0339L69.1112 19.7937C70.8385 20.3695 72.2438 21.6454 72.9832 23.3091C81.8248 43.2031 73.4551 66.5327 53.9833 76.2686L48.9279 78.7963C47.5318 79.494 45.8888 79.494 44.4927 78.7963L39.4373 76.2686C19.9656 66.5327 11.5957 43.2031 20.4374 23.3091C21.1769 21.6454 22.5822 20.3695 24.3094 19.7937L44.5889 13.0339ZM46.4071 18.4888C46.5056 18.456 46.608 18.4397 46.7103 18.4397V46.024H23.2252C22.0237 39.3567 22.7435 32.2781 25.6919 25.6444C25.7751 25.4571 25.9333 25.3135 26.1277 25.2487L46.4071 18.4888ZM46.7103 73.4764L51.4119 71.1254C61.6411 66.011 68.3027 56.5277 70.1956 46.024H46.7103V73.4764Z" fill="#446DFF"/>
</svg>
