<svg width="63" height="79" viewBox="0 0 63 79" fill="none" xmlns="http://www.w3.org/2000/svg">
<path d="M61.5882 10.0169L32.7185 0.178418C32.3701 0.0594725 31.9028 0 31.4355 0C30.9683 0 30.501 0.0594725 30.1526 0.178418L1.28291 10.0169C0.577735 10.2548 0 11.0704 0 11.8181V52.8032C0 53.5509 0.484278 54.5364 1.07051 55.0037L30.3565 77.8242C30.6539 78.0536 31.0362 78.1726 31.427 78.1726C31.8179 78.1726 32.2087 78.0536 32.4976 77.8242L61.7836 55.0037C62.3698 54.5449 62.8541 53.5594 62.8541 52.8032V11.8181C62.8711 11.0704 62.2934 10.2633 61.5882 10.0169ZM43.0157 23.857L35.5646 37.5442H39.4474C39.9146 37.5442 40.297 37.9266 40.297 38.3939V40.2035C40.297 40.6708 39.9146 41.0531 39.4474 41.0531H34.0608V43.5765H39.4474C39.9146 43.5765 40.297 43.9588 40.297 44.4261V46.2357C40.297 46.703 39.9146 47.0854 39.4474 47.0854H34.0608V51.4863C34.0608 51.9536 33.6785 52.3359 33.2112 52.3359H29.7023C29.2351 52.3359 28.8527 51.9536 28.8527 51.4863V47.0854H23.4917C23.0244 47.0854 22.6421 46.703 22.6421 46.2357V44.4261C22.6421 43.9588 23.0244 43.5765 23.4917 43.5765H28.8527V41.0531H23.4917C23.0244 41.0531 22.6421 40.6708 22.6421 40.2035V38.3939C22.6421 37.9266 23.0244 37.5442 23.4917 37.5442H27.3319L19.8554 23.857C19.6345 23.4492 19.7789 22.931 20.1952 22.7016C20.3227 22.6336 20.4586 22.5996 20.603 22.5996H24.5112C24.8341 22.5996 25.1229 22.778 25.2674 23.0669L31.461 35.3268L37.6802 23.0669C37.7508 22.9268 37.8588 22.809 37.9923 22.7265C38.1257 22.644 38.2794 22.6001 38.4363 22.5996H42.2596C42.7269 22.5996 43.1092 22.9819 43.1092 23.4492C43.1177 23.5937 43.0837 23.7296 43.0157 23.857Z" fill="#446DFF"/>
</svg>
