<svg width="87" height="87" viewBox="0 0 87 87" fill="none" xmlns="http://www.w3.org/2000/svg">
<g clip-path="url(#clip0_22_152)">
<path fill-rule="evenodd" clip-rule="evenodd" d="M52.7166 9.41913C48.7889 1.69362 38.2108 1.69363 34.2831 9.41913L4.86062 67.2898C1.34668 74.2016 5.78826 83.375 14.0774 83.375H72.9223C81.2116 83.375 85.6529 74.2016 82.1392 67.2898L52.7166 9.41913ZM43.5 29C45.5021 29 47.125 30.623 47.125 32.625V50.75C47.125 52.7521 45.5021 54.375 43.5 54.375C41.4979 54.375 39.875 52.7521 39.875 50.75V32.625C39.875 30.623 41.4979 29 43.5 29ZM43.5 59.8125C45.5021 59.8125 47.125 61.4354 47.125 63.4375V65.25C47.125 67.2521 45.5021 68.875 43.5 68.875C41.4979 68.875 39.875 67.2521 39.875 65.25V63.4375C39.875 61.4354 41.4979 59.8125 43.5 59.8125Z" fill="#446DFF"/>
</g>
<defs>
<clipPath id="clip0_22_152">
<rect width="87" height="87" fill="white"/>
</clipPath>
</defs>
</svg>
