<svg width="87" height="87" viewBox="0 0 87 87" fill="none" xmlns="http://www.w3.org/2000/svg">
<path fill-rule="evenodd" clip-rule="evenodd" d="M43.0904 79.6775C43.3659 79.7717 43.6341 79.7754 43.9096 79.6775C47.4295 78.4812 72.5 68.9402 72.5 40.7921V15.602C72.5008 15.278 72.393 14.9631 72.1939 14.7076C71.9949 14.452 71.7159 14.2704 71.4016 14.1919L43.8516 7.29349C43.6208 7.23579 43.3792 7.23579 43.1484 7.29349L15.5984 14.1919C15.2841 14.2704 15.0051 14.452 14.8061 14.7076C14.607 14.9631 14.4992 15.278 14.5 15.602V40.7885C14.5 68.6539 39.5778 78.4414 43.0904 79.6775ZM43.5 25.375C44.4614 25.375 45.3834 25.7569 46.0633 26.4367C46.7431 27.1166 47.125 28.0386 47.125 29V36.25H54.375C55.3364 36.25 56.2584 36.6319 56.9383 37.3117C57.6181 37.9916 58 38.9136 58 39.875C58 40.8364 57.6181 41.7584 56.9383 42.4383C56.2584 43.1181 55.3364 43.5 54.375 43.5H47.125V50.75C47.125 51.7114 46.7431 52.6334 46.0633 53.3133C45.3834 53.9931 44.4614 54.375 43.5 54.375C42.5386 54.375 41.6166 53.9931 40.9367 53.3133C40.2569 52.6334 39.875 51.7114 39.875 50.75V43.5H32.625C31.6636 43.5 30.7416 43.1181 30.0617 42.4383C29.3819 41.7584 29 40.8364 29 39.875C29 38.9136 29.3819 37.9916 30.0617 37.3117C30.7416 36.6319 31.6636 36.25 32.625 36.25H39.875V29C39.875 28.0386 40.2569 27.1166 40.9367 26.4367C41.6166 25.7569 42.5386 25.375 43.5 25.375Z" fill="#446DFF"/>
</svg>
