<svg width="37" height="45" viewBox="0 0 37 45" fill="none" xmlns="http://www.w3.org/2000/svg">
<path d="M35.3955 5.75684L18.8037 0.102539C18.6035 0.0341796 18.335 0 18.0664 0C17.7978 0 17.5293 0.0341796 17.3291 0.102539L0.737305 5.75684C0.332032 5.89355 0 6.36231 0 6.79199V30.3467C0 30.7764 0.278321 31.3428 0.615235 31.6113L17.4463 44.7266C17.6172 44.8584 17.8369 44.9268 18.0615 44.9268C18.2861 44.9268 18.5107 44.8584 18.6768 44.7266L35.5078 31.6113C35.8447 31.3477 36.123 30.7813 36.123 30.3467V6.79199C36.1328 6.36231 35.8008 5.89844 35.3955 5.75684ZM26.9775 14.0967L16.5967 28.3887C16.5237 28.4886 16.4282 28.5698 16.3179 28.6258C16.2076 28.6818 16.0856 28.711 15.9619 28.711C15.8382 28.711 15.7162 28.6818 15.6059 28.6258C15.4956 28.5698 15.4001 28.4886 15.3271 28.3887L9.15527 19.8926C8.96973 19.6338 9.15527 19.2725 9.47266 19.2725H12.168C12.417 19.2725 12.6562 19.3945 12.8027 19.5947L15.9619 23.9404L23.3301 13.7939C23.4766 13.5938 23.7109 13.4717 23.9648 13.4717H26.6602C26.9775 13.4766 27.1631 13.8379 26.9775 14.0967Z" fill="#446DFF"/>
</svg>
